<?xml version="1.0" encoding="UTF-8"?>
<!-- Creator: CorelDRAW 2019 (64-Bit) -->
<svg xmlns="http://www.w3.org/2000/svg" xml:space="preserve" width="1.99999in" height="1.99999in" version="1.1" style="shape-rendering:geometricPrecision; text-rendering:geometricPrecision; image-rendering:optimizeQuality; fill-rule:evenodd; clip-rule:evenodd"
viewBox="0 0 1999.99 1999.99"
 xmlns:xlink="http://www.w3.org/1999/xlink">
 <defs>
  <style type="text/css">
   <![CDATA[
    .fil0 {fill:#96989A}
   ]]>
  </style>
 </defs>
 <g id="Layer_x0020_1">
  <metadata id="CorelCorpID_0Corel-Layer"/>
  <g id="_2307534470656">
   <path class="fil0" d="M975.41 543.98c11.29,0 111.32,68.77 118.75,77.78l-237.5 0c7.65,-9.28 107.62,-77.78 118.75,-77.78zm-500 188.89l1000 0 -500 -333.33c-111.12,66.15 -342.61,227.37 -468.8,311.07l-31.2 22.26z"/>
   <polygon class="fil0" points="475.41,1399.54 1475.41,1399.54 1475.41,1288.43 475.41,1288.43 "/>
   <polygon class="fil0" points="537.91,1232.87 662.91,1232.87 662.91,788.43 537.91,788.43 "/>
   <polygon class="fil0" points="787.91,1232.87 912.91,1232.87 912.91,788.43 787.91,788.43 "/>
   <polygon class="fil0" points="1037.91,1232.87 1162.91,1232.87 1162.91,788.43 1037.91,788.43 "/>
   <polygon class="fil0" points="1287.91,1232.87 1412.91,1232.87 1412.91,788.43 1287.91,788.43 "/>
  </g>
 </g>
</svg>
